<svg xmlns="http://www.w3.org/2000/svg" width="24" height="24" viewBox="0 0 24 24" fill="none">
  <path d="M8.5 11.5C10.433 11.5 12 9.933 12 8C12 6.067 10.433 4.5 8.5 4.5C6.567 4.5 5 6.067 5 8C5 9.933 6.567 11.5 8.5 11.5Z" stroke="#F5F5F5" stroke-width="2" stroke-linecap="round" stroke-linejoin="round"/>
  <path d="M2.5 19C2.5 15.962 5.186 13.5 8.5 13.5C11.814 13.5 14.5 15.962 14.5 19" stroke="#F5F5F5" stroke-width="2" stroke-linecap="round" stroke-linejoin="round"/>
  <path d="M15.5 5.5C17.433 5.5 19 7.067 19 9C19 10.933 17.433 12.5 15.5 12.5" stroke="#F5F5F5" stroke-width="2" stroke-linecap="round" stroke-linejoin="round"/>
  <path d="M16.5 14.5C19.261 14.5 21.5 16.515 21.5 19" stroke="#F5F5F5" stroke-width="2" stroke-linecap="round" stroke-linejoin="round"/>

</svg>
