<?xml version="1.0" encoding="UTF-8"?>
<svg width="24" height="24" viewBox="0 0 24 24" fill="none" xmlns="http://www.w3.org/2000/svg">
    <path d="M12 15C14.2091 15 16 13.2091 16 11C16 8.79086 14.2091 7 12 7C9.79086 7 8 8.79086 8 11C8 13.2091 9.79086 15 12 15Z" stroke="currentColor" stroke-width="2" stroke-linecap="round" stroke-linejoin="round"/>
    <path d="M19.4 15C20.2 15.8 20.2 17.2 19.4 18C18.6 18.8 17.2 18.8 16.4 18" stroke="currentColor" stroke-width="2" stroke-linecap="round" stroke-linejoin="round"/>
    <path d="M7.6 15C6.8 15.8 6.8 17.2 7.6 18C8.4 18.8 9.8 18.8 10.6 18" stroke="currentColor" stroke-width="2" stroke-linecap="round" stroke-linejoin="round"/>
    <path d="M12 22C14.2091 22 16 20.2091 16 18C16 15.7909 14.2091 14 12 14C9.79086 14 8 15.7909 8 18C8 20.2091 9.79086 22 12 22Z" stroke="currentColor" stroke-width="2" stroke-linecap="round" stroke-linejoin="round"/>
</svg> 