<svg preserveAspectRatio="none" overflow="visible" style="display: block;" width="26" height="26" viewBox="0 0 26 26" fill="none" xmlns="http://www.w3.org/2000/svg">
<g id="ix:tasks-all">
<path id="Vector" fill-rule="evenodd" clip-rule="evenodd" d="M13 4.33337H21.6666V6.5H13V4.33337ZM13 11.9167H21.6666V14.0834H13V11.9167ZM13 19.5H21.6666V21.6667H13V19.5ZM9.63899 2.34234L10.927 3.33308L7.06601 8.35245L3.58155 5.30354L4.65161 4.08063L6.83358 5.98868L9.63899 2.34234ZM9.63899 9.92565L10.927 10.9164L7.06601 15.9358L3.58155 12.8869L4.65161 11.6639L6.83358 13.572L9.63899 9.92565ZM9.63899 17.509L10.927 18.4998L7.06601 23.5191L3.58155 20.4702L4.65161 19.2473L6.83358 21.1554L9.63899 17.509Z" fill="#252525"/>
</g>
</svg>
